<?xml version="1.0" encoding="UTF-8" standalone="no"?>
<!DOCTYPE svg PUBLIC "-//W3C//DTD SVG 1.1//EN" "http://www.w3.org/Graphics/SVG/1.1/DTD/svg11.dtd">
<svg version="1.1" xmlns="http://www.w3.org/2000/svg" xmlns:xlink="http://www.w3.org/1999/xlink"
     preserveAspectRatio="xMidYMid meet" viewBox="0 0 640 640" width="640" height="640">
  <defs>
    <path
      d="M349.54 1.28L362.21 2.67L374.74 4.55L387.11 6.92L399.31 9.75L411.33 13.04L423.16 16.78L434.8 20.97L446.23 25.59L457.43 30.64L468.41 36.1L479.14 41.97L489.63 48.23L499.85 54.89L509.8 61.92L519.47 69.32L528.85 77.07L537.92 85.18L546.68 93.63L555.12 102.41L563.22 111.52L570.98 120.94L578.38 130.66L585.42 140.67L592.08 150.98L598.36 161.55L604.24 172.4L609.71 183.5L614.77 194.85L619.39 206.44L623.58 218.26L627.33 230.3L630.61 242.55L633.42 255.01L635.75 267.66L637.6 280.49L638.94 293.49L639.77 306.66L640.08 319.98L639.89 333.16L639.15 346.2L637.9 359.1L636.13 371.84L633.87 384.42L631.11 396.82L627.87 409.03L624.16 421.05L619.99 432.86L615.37 444.46L610.31 455.82L604.83 466.95L598.93 477.84L592.62 488.46L585.91 498.81L578.82 508.89L571.35 518.67L563.52 528.16L555.33 537.33L546.8 546.19L537.93 554.71L528.74 562.89L519.24 570.72L509.44 578.19L499.34 585.28L488.96 592L478.31 598.32L467.4 604.23L456.25 609.74L444.85 614.81L433.22 619.46L421.38 623.66L409.32 627.4L397.07 630.68L384.63 633.48L372.02 635.8L359.24 637.62L346.3 638.93L333.22 639.72L320.01 639.99L306.68 639.72L293.48 638.91L280.45 637.56L267.57 635.71L254.87 633.34L242.35 630.48L230.03 627.13L217.91 623.31L206 619.03L194.33 614.29L182.88 609.11L171.68 603.5L160.74 597.47L150.07 591.04L139.67 584.2L129.56 576.98L119.75 569.38L110.24 561.41L101.05 553.09L92.19 544.43L83.68 535.43L75.51 526.11L67.7 516.48L60.26 506.55L53.2 496.33L46.53 485.83L40.26 475.07L34.4 464.04L28.97 452.77L23.97 441.27L19.41 429.54L15.3 417.6L11.66 405.45L8.49 393.11L5.81 380.59L3.61 367.91L1.93 355.06L0.76 342.06L0.11 328.93L0 315.67L0.42 302.93L1.35 290.28L2.77 277.75L4.68 265.35L7.08 253.08L9.94 240.95L13.27 228.99L17.05 217.2L21.27 205.59L25.93 194.17L31.02 182.97L36.52 171.97L42.43 161.21L48.74 150.69L55.44 140.42L62.52 130.42L69.98 120.69L77.8 111.25L85.97 102.11L94.5 93.28L103.35 84.78L112.54 76.61L122.04 68.78L131.86 61.31L141.97 54.21L152.38 47.5L163.07 41.17L174.04 35.25L185.27 29.75L196.76 24.67L208.5 20.03L220.47 15.85L232.68 12.13L245.1 8.88L257.74 6.12L270.58 3.85L283.62 2.1L296.84 0.86L310.23 0.16L323.8 0.01L336.73 0.39L349.54 1.28ZM365.94 164.45L362.46 164.6L358.97 164.8L355.48 165.06L351.97 165.39L348.45 165.78L344.92 166.24L339.71 167.06L334.56 167.97L329.47 168.98L324.44 170.08L319.46 171.28L314.55 172.57L309.69 173.96L304.89 175.44L300.15 177.01L295.47 178.67L290.85 180.43L286.28 182.28L281.77 184.22L277.33 186.25L272.94 188.37L268.6 190.59L264.33 192.89L260.11 195.29L255.96 197.77L251.86 200.35L247.81 203.01L243.83 205.76L239.9 208.6L236.03 211.53L232.22 214.55L228.47 217.66L224.77 220.85L221.14 224.13L217.55 227.5L214.03 230.95L210.57 234.49L207.16 238.12L203.8 241.83L200.51 245.63L197.27 249.51L194.09 253.48L190.97 257.53L187.9 261.67L184.89 265.89L181.94 270.19L179.17 274.42L176.53 278.68L174.02 282.96L171.64 287.26L169.39 291.58L167.27 295.93L165.28 300.3L163.41 304.69L161.66 309.1L160.04 313.53L158.53 317.98L157.14 322.45L155.87 326.94L154.71 331.45L153.66 335.97L152.73 340.51L151.9 345.07L151.18 349.64L150.57 354.23L150.06 358.83L149.66 363.45L149.35 368.08L149.15 372.72L149.04 377.38L149.03 382.05L149.11 386.73L149.28 391.42L149.55 396.13L149.9 400.84L150.35 405.56L150.87 410.29L151.49 415.03L152.18 419.78L152.95 424.54L153.81 429.3L154.74 434.07L155.75 438.84L156.83 443.62L157.98 448.41L159.21 453.2L160.21 456.8L161.27 460.37L162.38 463.92L163.55 467.45L164.77 470.94L166.04 474.42L167.36 477.87L168.73 481.3L170.15 484.7L171.61 488.08L173.12 491.44L174.67 494.78L176.27 498.1L177.91 501.39L179.59 504.67L181.32 507.92L183.08 511.15L184.87 514.37L186.71 517.56L188.58 520.74L190.49 523.9L192.42 527.04L194.39 530.16L196.4 533.27L198.43 536.36L200.49 539.43L202.58 542.49L204.69 545.53L206.84 548.56L209 551.57L211.19 554.57L213.4 557.55L215.63 560.52L217.88 563.48L220.16 566.43L222.44 569.36L224.75 572.28L227.07 575.19L229.4 578.09L231.75 580.98L232.57 581.94L233.39 582.88L234.22 583.79L235.06 584.68L235.9 585.55L236.75 586.39L237.6 587.21L238.47 588.01L239.34 588.78L240.22 589.53L241.11 590.26L242 590.96L242.91 591.64L243.82 592.3L244.74 592.94L245.67 593.55L246.61 594.15L247.56 594.72L248.52 595.27L249.49 595.8L250.47 596.3L251.46 596.79L252.46 597.25L253.47 597.7L254.5 598.12L255.53 598.52L256.57 598.91L257.63 599.27L258.7 599.61L259.78 599.93L260.87 600.23L261.97 600.52L263.09 600.78L264.22 601.02L265.36 601.25L266.52 601.45L267.69 601.64L268.87 601.81L270.07 601.96L271.28 602.09L271.44 602.1L271.61 602.1L271.77 602.11L271.94 602.12L272.1 602.14L272.27 602.15L272.43 602.16L272.6 602.18L272.76 602.19L272.93 602.21L273.09 602.23L273.25 602.25L273.42 602.27L273.58 602.29L273.74 602.31L273.91 602.33L274.07 602.35L274.23 602.38L274.4 602.4L274.56 602.43L274.72 602.46L274.89 602.49L275.05 602.52L275.21 602.55L275.37 602.58L275.53 602.61L275.69 602.65L275.86 602.68L276.02 602.72L276.18 602.75L276.34 602.79L276.5 602.83L276.66 602.87L276.82 602.91L276.98 602.95L277.14 602.99L277.3 603.03L277.46 603.08L277.62 603.12L277.77 603.17L295.65 604.86L295.61 604.66L295.57 604.47L295.52 604.28L295.47 604.1L295.42 603.92L295.37 603.75L295.31 603.58L295.26 603.42L295.2 603.27L295.14 603.12L295.07 602.97L295.01 602.84L294.94 602.7L294.87 602.57L294.8 602.45L294.72 602.32L294.65 602.21L294.57 602.1L294.49 601.99L294.41 601.88L294.33 601.79L294.24 601.69L294.15 601.6L294.06 601.51L293.97 601.43L293.88 601.35L293.79 601.27L293.69 601.19L293.59 601.12L293.49 601.06L293.39 600.99L293.29 600.93L293.18 600.87L293.08 600.82L292.97 600.76L292.86 600.71L292.75 600.66L292.64 600.62L292.52 600.57L292.41 600.53L290.37 598.67L288.35 596.8L286.34 594.91L284.34 593.01L282.36 591.09L280.38 589.17L278.43 587.23L276.48 585.28L274.55 583.32L272.63 581.34L270.72 579.35L268.83 577.35L266.95 575.34L265.09 573.31L263.23 571.28L261.39 569.23L259.57 567.17L257.76 565.09L255.96 563.01L254.18 560.91L252.41 558.8L250.65 556.68L248.91 554.55L247.18 552.41L245.46 550.26L243.76 548.09L242.08 545.91L240.4 543.73L238.75 541.53L237.1 539.32L235.47 537.1L233.86 534.86L232.26 532.62L230.67 530.37L229.1 528.1L227.55 525.83L226 523.54L224.48 521.25L222.97 518.94L221.47 516.62L219.1 512.96L216.79 509.28L214.54 505.58L212.35 501.87L210.22 498.14L208.15 494.4L206.15 490.63L204.21 486.85L202.33 483.05L200.52 479.24L198.78 475.4L197.1 471.55L195.5 467.68L193.96 463.79L192.5 459.89L191.1 455.96L189.78 452.02L188.54 448.05L187.37 444.07L186.27 440.07L185.26 436.05L184.32 432.01L183.46 427.95L182.68 423.87L181.98 419.77L181.36 415.66L180.83 411.52L180.38 407.36L180.02 403.18L179.74 398.98L179.55 394.76L179.45 390.51L179.44 386.25L179.52 381.97L179.69 377.66L179.95 373.33L180.3 368.98L180.75 364.61L181.3 360.22L181.94 355.81L182.45 352.77L182.99 349.75L183.57 346.75L184.19 343.76L184.84 340.79L185.54 337.84L186.27 334.91L187.04 332L187.86 329.1L188.71 326.23L189.6 323.37L190.54 320.54L191.51 317.73L192.53 314.93L193.59 312.16L194.69 309.41L195.84 306.68L197.03 303.97L198.26 301.29L199.54 298.63L200.86 295.99L202.23 293.38L203.64 290.78L205.1 288.22L206.6 285.68L208.16 283.16L209.75 280.67L211.4 278.21L213.09 275.77L214.84 273.36L216.63 270.97L218.47 268.61L220.36 266.28L222.29 263.98L224.28 261.71L226.32 259.46L228.42 257.24L230.56 255.06L232.75 252.9L235 250.77L239.47 246.7L244.04 242.76L248.7 238.96L253.44 235.3L258.27 231.78L263.18 228.4L268.16 225.17L273.23 222.08L278.36 219.15L283.57 216.37L288.84 213.73L294.17 211.26L299.57 208.94L305.02 206.78L310.54 204.77L316.1 202.93L321.71 201.26L327.37 199.75L333.08 198.41L338.83 197.24L344.61 196.24L350.43 195.41L356.28 194.76L362.17 194.28L368.08 193.99L374.01 193.87L379.97 193.94L385.95 194.19L391.94 194.63L397.94 195.26L403.96 196.08L409.98 197.09L416 198.3L422.03 199.7L428.06 201.3L434.08 203.1L440.1 205.1L446.1 207.3L452.1 209.71L458.08 212.33L461.99 214.14L465.87 216L469.71 217.91L473.51 219.86L477.27 221.86L481 223.91L484.68 226L488.33 228.14L491.95 230.32L495.53 232.54L499.07 234.81L502.58 237.12L506.05 239.47L509.5 241.86L512.9 244.3L516.28 246.77L519.63 249.29L522.94 251.84L526.22 254.43L529.48 257.06L532.7 259.73L535.9 262.44L539.06 265.18L542.2 267.96L545.31 270.77L548.4 273.62L551.46 276.5L554.49 279.41L557.5 282.36L560.48 285.34L563.44 288.36L566.38 291.4L569.3 294.47L572.19 297.58L575.06 300.72L577.91 303.88L580.74 307.07L583.55 310.3L586.34 313.54L589.11 316.82L589.55 317.18L589.99 317.55L590.42 317.92L590.85 318.3L591.27 318.68L591.69 319.06L592.1 319.45L592.51 319.84L592.91 320.24L593.31 320.64L593.71 321.04L594.1 321.45L594.49 321.86L594.88 322.27L595.26 322.69L595.64 323.11L596.03 323.53L596.4 323.96L596.78 324.39L597.16 324.83L597.53 325.26L597.91 325.7L598.28 326.15L598.65 326.59L599.03 327.04L599.4 327.49L599.78 327.95L600.15 328.41L600.53 328.87L600.9 329.33L601.28 329.79L601.66 330.26L602.05 330.73L602.43 331.21L602.82 331.68L603.21 332.16L603.6 332.64L604 333.12L604.4 333.6L604.8 334.09L604.84 334L604.87 333.9L604.91 333.81L604.94 333.72L604.97 333.63L605.01 333.53L605.04 333.44L605.07 333.35L605.11 333.25L605.14 333.16L605.17 333.07L605.2 332.97L605.23 332.88L605.26 332.79L605.29 332.69L605.32 332.6L605.35 332.5L605.37 332.41L605.4 332.31L605.43 332.22L605.46 332.12L605.48 332.03L605.51 331.93L605.53 331.84L605.56 331.74L605.58 331.65L605.61 331.55L605.63 331.46L605.66 331.36L605.68 331.27L605.7 331.17L605.72 331.07L605.74 330.98L605.77 330.88L605.79 330.78L605.81 330.69L605.83 330.59L605.85 330.49L605.87 330.4L605.88 330.3L605.84 329.29L605.8 328.27L605.76 327.26L605.72 326.26L605.68 325.25L605.64 324.24L605.6 323.24L605.56 322.24L605.52 321.23L605.48 320.23L605.44 319.23L605.4 318.24L605.35 317.24L605.31 316.24L605.27 315.24L605.23 314.25L605.19 313.25L605.15 312.26L605.11 311.26L605.06 310.27L605.02 309.27L604.98 308.28L604.94 307.28L604.9 306.28L604.85 305.29L604.81 304.29L604.77 303.29L604.73 302.3L604.68 301.3L604.64 300.3L604.6 299.3L604.55 298.3L604.51 297.29L604.46 296.29L604.42 295.28L604.37 294.28L604.33 293.27L604.28 292.26L604.24 291.25L604.19 290.23L604.17 290.06L604.14 289.89L604.11 289.71L604.08 289.54L604.04 289.37L604 289.2L603.96 289.03L603.91 288.87L603.86 288.7L603.81 288.54L603.75 288.37L603.7 288.21L603.63 288.05L603.57 287.89L603.5 287.73L603.43 287.57L603.36 287.41L603.28 287.26L603.21 287.1L603.13 286.95L603.04 286.8L602.95 286.65L602.87 286.5L602.77 286.36L602.68 286.21L602.58 286.07L602.48 285.93L602.38 285.79L602.27 285.66L602.16 285.52L602.05 285.39L601.94 285.26L601.82 285.13L601.71 285L601.59 284.87L601.46 284.75L601.34 284.63L601.21 284.51L601.08 284.39L600.95 284.28L598.38 281.33L595.79 278.4L593.18 275.5L590.55 272.62L587.89 269.77L585.22 266.95L582.52 264.15L579.8 261.38L577.06 258.64L574.3 255.93L571.51 253.24L568.69 250.59L565.86 247.96L563 245.37L560.11 242.81L557.21 240.28L554.27 237.78L551.31 235.31L548.33 232.87L545.31 230.47L542.28 228.1L539.21 225.77L536.12 223.46L533 221.2L529.86 218.97L526.68 216.77L523.48 214.62L520.25 212.49L516.99 210.41L513.71 208.36L510.39 206.36L507.04 204.39L503.66 202.45L500.26 200.56L496.82 198.71L493.35 196.9L489.85 195.13L486.32 193.4L482.76 191.71L479.17 190.07L475.95 188.62L472.74 187.21L469.51 185.83L466.28 184.49L463.04 183.18L459.8 181.91L456.55 180.67L453.3 179.48L450.03 178.32L446.76 177.2L443.49 176.13L440.2 175.09L436.91 174.1L433.61 173.15L430.31 172.25L426.99 171.38L423.67 170.57L420.34 169.8L417.01 169.08L413.66 168.4L410.31 167.78L406.95 167.2L403.58 166.68L400.2 166.2L396.82 165.78L393.42 165.41L390.02 165.1L386.6 164.83L383.18 164.63L379.75 164.48L376.31 164.38L372.86 164.35L369.41 164.37L365.94 164.45ZM368.35 233.98L364.69 234.23L361.01 234.57L357.29 234.99L353.56 235.5L349.79 236.11L344.93 237L340.09 238.07L335.29 239.3L330.52 240.69L325.79 242.24L321.1 243.96L316.47 245.83L311.89 247.85L307.38 250.03L302.93 252.37L298.55 254.85L294.25 257.48L290.03 260.26L285.9 263.18L281.86 266.24L277.92 269.45L274.08 272.8L270.35 276.28L266.73 279.9L263.22 283.65L259.85 287.53L256.59 291.55L253.48 295.69L250.5 299.96L247.66 304.35L244.97 308.87L242.44 313.51L240.06 318.26L237.85 323.14L235.81 328.12L233.94 333.23L232.25 338.44L230.74 343.76L229.43 349.2L228.31 354.73L227.38 360.38L226.67 366.12L226.16 371.97L225.87 377.91L225.8 383.95L225.82 386.59L225.87 389.22L225.95 391.84L226.07 394.46L226.23 397.07L226.41 399.68L226.64 402.28L226.89 404.87L227.18 407.45L227.5 410.03L227.85 412.61L228.24 415.17L228.66 417.73L229.11 420.28L229.6 422.83L230.11 425.37L230.66 427.9L231.24 430.42L231.85 432.94L232.5 435.45L233.17 437.96L233.88 440.45L234.62 442.94L235.39 445.43L236.19 447.9L237.02 450.37L237.88 452.83L238.77 455.28L239.7 457.73L240.65 460.16L241.63 462.59L242.64 465.02L243.68 467.43L244.76 469.84L245.86 472.24L246.99 474.63L248.15 477.01L249.33 479.39L250.55 481.75L251.8 484.11L253.77 487.71L255.79 491.25L257.86 494.76L259.97 498.22L262.13 501.64L264.34 505.02L266.59 508.36L268.88 511.65L271.21 514.91L273.59 518.13L276.01 521.31L278.47 524.46L280.97 527.56L283.5 530.64L286.08 533.67L288.69 536.67L291.34 539.64L294.03 542.57L296.75 545.47L299.5 548.34L302.29 551.18L305.11 553.99L307.96 556.76L310.85 559.51L313.76 562.23L316.71 564.91L319.68 567.58L322.68 570.21L325.71 572.82L328.77 575.4L331.85 577.96L334.95 580.5L338.08 583.01L341.24 585.49L344.42 587.96L347.62 590.4L350.84 592.82L354.08 595.23L357.34 597.61L360.62 599.97L360.7 600.02L360.78 600.06L360.86 600.1L360.94 600.15L361.02 600.2L361.11 600.25L361.19 600.3L361.27 600.36L361.35 600.41L361.43 600.47L361.51 600.52L361.59 600.58L361.67 600.63L361.76 600.69L361.84 600.75L361.92 600.8L362 600.86L362.08 600.91L362.16 600.97L362.24 601.02L362.32 601.07L362.4 601.13L362.49 601.18L362.57 601.23L362.65 601.27L362.73 601.32L362.81 601.36L362.89 601.4L362.97 601.44L363.05 601.48L363.14 601.51L363.22 601.54L363.3 601.57L363.38 601.59L363.46 601.61L363.54 601.63L363.62 601.65L363.7 601.66L363.78 601.66L363.87 601.66L364.8 601.5L365.73 601.34L366.66 601.17L367.59 601L368.51 600.83L369.44 600.66L370.36 600.48L371.28 600.31L372.2 600.13L373.12 599.95L374.04 599.77L374.96 599.58L375.87 599.4L376.79 599.22L377.7 599.03L378.62 598.84L379.53 598.65L380.45 598.46L381.36 598.27L382.28 598.08L383.19 597.89L384.1 597.69L385.02 597.5L385.93 597.3L386.85 597.1L387.76 596.91L388.68 596.71L389.6 596.51L390.51 596.31L391.43 596.11L392.35 595.91L393.27 595.71L394.19 595.51L395.12 595.3L396.04 595.1L396.97 594.9L397.89 594.7L398.82 594.49L399.75 594.29L400.69 594.09L400.53 593.88L400.37 593.68L400.21 593.47L400.04 593.27L399.88 593.07L399.71 592.87L399.54 592.67L399.37 592.47L399.2 592.28L399.03 592.09L398.85 591.89L398.68 591.7L398.5 591.52L398.32 591.33L398.14 591.14L397.95 590.96L397.77 590.78L397.58 590.6L397.39 590.42L397.2 590.24L397.01 590.06L396.82 589.89L396.63 589.72L396.43 589.55L396.23 589.38L396.04 589.21L395.84 589.05L395.63 588.88L395.43 588.72L395.23 588.56L395.02 588.4L394.82 588.24L394.61 588.09L394.4 587.93L394.19 587.78L393.97 587.63L393.76 587.48L393.54 587.34L393.33 587.19L393.11 587.05L391.08 585.76L389.07 584.45L387.06 583.14L385.05 581.81L383.06 580.47L381.07 579.11L379.1 577.75L377.13 576.38L375.17 574.99L373.22 573.59L371.28 572.18L369.34 570.76L367.42 569.32L365.5 567.88L363.59 566.42L361.7 564.95L359.81 563.47L357.93 561.98L356.05 560.48L354.19 558.97L352.34 557.44L350.49 555.91L348.66 554.36L346.83 552.8L345.02 551.24L343.21 549.66L341.41 548.07L339.62 546.46L337.85 544.85L336.08 543.23L334.32 541.6L332.57 539.95L330.83 538.3L329.1 536.63L327.38 534.95L325.67 533.27L323.97 531.57L322.28 529.86L320.6 528.14L318.93 526.42L316.63 523.97L314.36 521.51L312.13 519.03L309.93 516.54L307.77 514.03L305.64 511.5L303.55 508.96L301.5 506.4L299.48 503.82L297.5 501.23L295.56 498.61L293.66 495.98L291.8 493.32L289.98 490.65L288.2 487.96L286.46 485.24L284.76 482.5L283.11 479.74L281.5 476.96L279.94 474.16L278.41 471.33L276.94 468.48L275.51 465.6L274.12 462.7L272.79 459.78L271.5 456.82L270.26 453.85L269.06 450.84L267.92 447.81L266.83 444.76L265.78 441.67L264.79 438.56L263.85 435.42L262.97 432.25L262.13 429.05L261.35 425.82L260.63 422.55L259.96 419.26L259.34 415.94L258.78 412.59L258.39 410.07L258.04 407.56L257.73 405.06L257.45 402.57L257.21 400.08L257.01 397.6L256.85 395.12L256.72 392.65L256.64 390.19L256.59 387.73L256.58 385.28L256.61 382.83L256.68 380.4L256.79 377.97L256.94 375.54L257.14 373.12L257.37 370.71L257.64 368.31L257.95 365.91L258.31 363.53L258.7 361.14L259.14 358.77L259.62 356.4L260.14 354.04L260.71 351.69L261.32 349.34L261.97 347L262.66 344.67L263.4 342.35L264.18 340.03L265.01 337.72L265.88 335.42L266.8 333.13L267.76 330.84L268.76 328.56L269.81 326.29L270.91 324.03L272.05 321.78L273.24 319.53L274.48 317.29L276.53 313.83L278.78 310.44L281.23 307.12L283.87 303.88L286.69 300.72L289.68 297.65L292.83 294.68L296.15 291.8L299.62 289.02L303.23 286.35L306.97 283.79L310.85 281.35L314.85 279.04L318.97 276.85L323.19 274.79L327.51 272.87L331.93 271.1L336.44 269.47L341.02 267.99L345.68 266.68L350.4 265.52L355.18 264.53L360.01 263.71L364.88 263.08L369.79 262.62L374.73 262.35L379.69 262.27L384.66 262.39L389.64 262.72L394.63 263.24L399.6 263.99L404.56 264.95L409.5 266.13L414.41 267.53L419.29 269.17L424.12 271.05L428.9 273.17L433.62 275.54L438.28 278.16L442.87 281.03L444.57 282.18L446.25 283.35L447.91 284.53L449.56 285.72L451.2 286.93L452.81 288.16L454.42 289.4L456 290.65L457.58 291.92L459.14 293.2L460.68 294.5L462.21 295.81L463.72 297.13L465.22 298.47L466.71 299.82L468.18 301.19L469.64 302.56L471.08 303.95L472.51 305.35L473.93 306.77L475.34 308.19L476.73 309.63L478.11 311.08L479.47 312.54L480.83 314.01L482.17 315.5L483.5 316.99L484.81 318.5L486.12 320.01L487.41 321.54L488.69 323.08L489.96 324.62L491.22 326.18L492.46 327.75L493.7 329.32L494.93 330.91L496.14 332.5L497.34 334.1L498.53 335.72L499.72 337.34L501.02 339.16L502.34 340.96L503.67 342.75L505.01 344.53L506.37 346.29L507.74 348.04L509.12 349.77L510.51 351.49L511.92 353.19L513.34 354.88L514.78 356.55L516.23 358.21L517.69 359.85L519.17 361.48L520.66 363.09L522.17 364.68L523.69 366.26L525.23 367.82L526.78 369.37L528.34 370.9L529.93 372.42L531.52 373.92L533.13 375.4L534.76 376.86L536.41 378.31L538.06 379.74L539.74 381.16L541.43 382.56L543.14 383.94L544.87 385.3L546.61 386.65L548.37 387.98L550.14 389.29L551.93 390.58L553.74 391.86L555.57 393.12L557.42 394.36L559.28 395.58L561.16 396.79L563.06 397.97L563.71 398.38L564.36 398.78L565.02 399.17L565.67 399.57L566.33 399.96L566.99 400.34L567.66 400.73L568.32 401.11L568.99 401.49L569.66 401.86L570.33 402.24L571 402.61L571.68 402.98L572.36 403.35L573.04 403.72L573.72 404.09L574.4 404.46L575.09 404.83L575.77 405.19L576.46 405.56L577.16 405.92L577.85 406.29L578.54 406.66L579.24 407.03L579.94 407.4L580.64 407.77L581.35 408.14L582.05 408.51L582.76 408.89L583.47 409.27L584.18 409.65L584.9 410.03L585.61 410.41L586.33 410.8L587.05 411.19L587.77 411.58L588.5 411.98L589.22 412.38L589.95 412.79L590.68 413.19L590.89 412.46L591.09 411.73L591.3 411.01L591.51 410.28L591.71 409.57L591.92 408.85L592.12 408.14L592.33 407.43L592.53 406.73L592.74 406.03L592.94 405.33L593.15 404.63L593.35 403.94L593.56 403.24L593.76 402.55L593.97 401.87L594.17 401.18L594.38 400.5L594.58 399.81L594.78 399.13L594.99 398.45L595.19 397.77L595.39 397.09L595.6 396.41L595.8 395.74L596.01 395.06L596.21 394.38L596.41 393.7L596.62 393.03L596.82 392.35L597.02 391.67L597.22 390.99L597.43 390.31L597.63 389.63L597.83 388.95L598.04 388.27L598.24 387.59L598.44 386.9L598.65 386.21L598.85 385.52L598.76 385.46L598.67 385.4L598.58 385.34L598.48 385.28L598.39 385.22L598.3 385.17L598.21 385.11L598.12 385.05L598.02 384.99L597.93 384.93L597.84 384.88L597.74 384.82L597.65 384.76L597.56 384.71L597.46 384.65L597.37 384.59L597.28 384.54L597.18 384.48L597.09 384.43L596.99 384.37L596.9 384.32L596.8 384.27L596.71 384.21L596.61 384.16L596.52 384.11L596.42 384.06L596.32 384L596.23 383.95L596.13 383.9L596.04 383.85L595.94 383.8L595.84 383.75L595.74 383.7L595.65 383.65L595.55 383.6L595.45 383.55L595.35 383.5L595.26 383.45L595.16 383.41L595.06 383.36L592.88 382.25L590.71 381.12L588.57 379.97L586.45 378.79L584.35 377.59L582.27 376.37L580.21 375.12L578.17 373.86L576.15 372.56L574.15 371.25L572.18 369.91L570.22 368.54L568.29 367.16L566.37 365.74L564.48 364.31L562.61 362.85L560.76 361.36L558.93 359.85L557.12 358.31L555.33 356.75L553.56 355.17L551.82 353.56L550.1 351.92L548.39 350.25L546.71 348.57L545.06 346.85L543.42 345.11L541.8 343.34L540.21 341.54L538.64 339.72L537.09 337.87L535.56 336L534.05 334.1L532.57 332.17L531.11 330.21L529.66 328.22L528.25 326.21L526.85 324.17L525.48 322.1L524.12 320L523.27 318.69L522.42 317.39L521.55 316.09L520.67 314.8L519.77 313.52L518.87 312.25L517.96 310.98L517.04 309.72L516.11 308.48L515.17 307.23L514.21 306L513.25 304.78L512.28 303.56L511.3 302.35L510.3 301.15L509.3 299.96L508.29 298.77L507.27 297.6L506.24 296.43L505.2 295.27L504.15 294.12L503.09 292.98L502.02 291.85L500.94 290.73L499.85 289.61L498.75 288.51L497.65 287.41L496.53 286.33L495.41 285.25L494.27 284.18L493.13 283.12L491.98 282.07L490.82 281.03L489.65 280L488.47 278.98L487.28 277.96L486.09 276.96L484.88 275.97L483.67 274.98L482.45 274.01L479.52 271.72L476.57 269.5L473.6 267.33L470.62 265.22L467.62 263.17L464.6 261.18L461.57 259.25L458.52 257.38L455.44 255.58L452.35 253.85L449.25 252.18L446.12 250.57L442.97 249.04L439.81 247.57L436.62 246.17L433.41 244.84L430.19 243.58L426.94 242.39L423.67 241.28L420.38 240.24L417.07 239.27L413.74 238.38L410.39 237.56L407.01 236.82L403.61 236.16L400.19 235.57L396.75 235.07L393.28 234.64L389.79 234.3L386.28 234.04L382.74 233.86L379.18 233.76L375.6 233.75L371.99 233.82L368.35 233.98ZM380.2 304.93L378.29 305.05L376.4 305.22L374.53 305.42L372.68 305.68L370.85 305.97L369.04 306.31L367.26 306.69L365.49 307.11L363.74 307.57L362.02 308.08L360.31 308.62L358.62 309.2L356.95 309.83L355.3 310.49L353.67 311.19L352.06 311.92L350.47 312.7L348.9 313.51L347.34 314.35L345.8 315.23L344.28 316.15L342.78 317.1L341.29 318.09L339.82 319.11L338.37 320.16L336.93 321.24L335.51 322.36L334.11 323.51L332.72 324.68L331.35 325.89L329.99 327.13L328.65 328.4L327.33 329.7L326.02 331.03L324.72 332.38L323.44 333.76L322.17 335.17L320.27 337.38L318.45 339.63L316.72 341.92L315.08 344.24L313.52 346.59L312.05 348.98L310.67 351.4L309.37 353.85L308.16 356.33L307.04 358.84L306.01 361.37L305.06 363.94L304.2 366.52L303.43 369.13L302.75 371.77L302.15 374.43L301.64 377.1L301.22 379.8L300.88 382.51L300.63 385.25L300.47 388L300.4 390.76L300.41 393.54L300.52 396.33L300.71 399.13L300.98 401.95L301.35 404.77L301.8 407.6L302.34 410.44L302.96 413.28L303.68 416.13L304.48 418.99L305.37 421.85L306.35 424.7L307.41 427.56L308.57 430.42L309.81 433.28L311.14 436.13L312.55 438.98L314.05 441.83L316.4 446.03L318.79 450.17L321.24 454.27L323.73 458.32L326.28 462.32L328.88 466.27L331.53 470.16L334.23 474.02L336.98 477.82L339.78 481.57L342.62 485.28L345.52 488.94L348.46 492.55L351.45 496.12L354.49 499.64L357.57 503.11L360.7 506.54L363.88 509.92L367.1 513.26L370.37 516.55L373.68 519.79L377.04 523L380.44 526.15L383.88 529.27L387.37 532.34L390.89 535.37L394.47 538.35L398.08 541.3L401.73 544.2L405.43 547.05L409.16 549.87L412.94 552.65L416.75 555.38L420.61 558.08L424.5 560.73L428.44 563.34L432.41 565.92L436.42 568.45L440.46 570.95L444.54 573.4L444.63 573.44L444.72 573.49L444.81 573.53L444.91 573.58L445.02 573.63L445.13 573.68L445.24 573.73L445.36 573.78L445.48 573.83L445.61 573.89L445.74 573.94L445.87 573.99L446 574.04L446.14 574.09L446.28 574.14L446.42 574.19L446.56 574.24L446.7 574.29L446.84 574.33L446.98 574.37L447.12 574.42L447.26 574.45L447.4 574.49L447.55 574.52L447.68 574.55L447.82 574.58L447.96 574.6L448.09 574.62L448.22 574.64L448.35 574.65L448.48 574.66L448.6 574.66L448.72 574.66L448.83 574.65L448.94 574.64L449.05 574.62L449.15 574.59L449.24 574.56L449.33 574.53L449.42 574.48L450.1 574.12L450.79 573.75L451.48 573.39L452.16 573.02L452.84 572.66L453.53 572.29L454.21 571.92L454.88 571.55L455.56 571.18L456.24 570.81L456.92 570.44L457.59 570.07L458.27 569.7L458.95 569.32L459.62 568.95L460.3 568.57L460.98 568.19L461.66 567.81L462.33 567.43L463.01 567.04L463.69 566.65L464.38 566.26L465.06 565.87L465.74 565.48L466.43 565.08L467.12 564.68L467.81 564.28L468.5 563.88L469.19 563.47L469.89 563.06L470.59 562.65L471.29 562.23L471.99 561.81L472.7 561.39L473.41 560.96L474.13 560.53L474.84 560.1L475.57 559.66L476.29 559.22L477.02 558.77L476.45 558.45L475.89 558.13L475.32 557.81L474.76 557.49L474.2 557.17L473.65 556.86L473.09 556.55L472.54 556.23L471.99 555.93L471.45 555.62L470.9 555.31L470.36 555.01L469.82 554.71L469.28 554.4L468.75 554.1L468.22 553.81L467.69 553.51L467.17 553.21L466.65 552.92L466.13 552.62L465.61 552.33L465.1 552.04L464.59 551.75L464.08 551.46L463.58 551.17L463.08 550.88L462.58 550.6L462.09 550.31L461.6 550.03L461.11 549.74L460.63 549.46L460.15 549.18L459.67 548.89L459.2 548.61L458.73 548.33L458.27 548.05L457.81 547.77L457.35 547.49L456.9 547.21L456.45 546.93L452.86 544.72L449.3 542.48L445.77 540.2L442.29 537.89L438.84 535.54L435.43 533.16L432.05 530.74L428.71 528.28L425.41 525.79L422.15 523.27L418.92 520.71L415.73 518.11L412.58 515.48L409.46 512.81L406.38 510.11L403.34 507.37L400.33 504.6L397.37 501.78L394.44 498.94L391.55 496.05L388.69 493.13L385.88 490.17L383.1 487.18L380.36 484.15L377.65 481.08L374.99 477.97L372.36 474.83L369.77 471.65L367.22 468.43L364.71 465.17L362.23 461.88L359.79 458.55L357.39 455.18L355.03 451.77L352.71 448.33L350.43 444.85L348.18 441.33L345.97 437.77L343.81 434.17L341.67 430.53L340.91 429.19L340.18 427.85L339.47 426.5L338.78 425.15L338.13 423.8L337.49 422.45L336.89 421.09L336.31 419.73L335.76 418.37L335.24 417L334.74 415.63L334.28 414.26L333.84 412.88L333.44 411.5L333.06 410.11L332.72 408.72L332.4 407.33L332.12 405.93L331.87 404.52L331.65 403.12L331.46 401.7L331.31 400.28L331.19 398.86L331.1 397.43L331.05 396L331.03 394.55L331.04 393.11L331.1 391.65L331.18 390.2L331.31 388.73L331.47 387.26L331.66 385.78L331.9 384.29L332.17 382.8L332.48 381.3L332.83 379.79L333.22 378.28L333.65 376.75L334.11 375.22L334.62 373.68L335.2 372.19L335.8 370.73L336.42 369.29L337.06 367.88L337.73 366.5L338.41 365.14L339.12 363.82L339.84 362.51L340.59 361.24L341.36 359.99L342.16 358.77L342.97 357.58L343.81 356.41L344.67 355.28L345.56 354.17L346.46 353.09L347.4 352.03L348.35 351.01L349.33 350.01L350.33 349.04L351.36 348.1L352.41 347.19L353.49 346.31L354.59 345.45L355.72 344.63L356.87 343.83L358.05 343.07L359.25 342.33L360.48 341.62L361.73 340.94L363.02 340.29L364.32 339.67L365.66 339.08L367.02 338.52L368.41 337.99L369.83 337.48L371.27 337.01L372.74 336.57L374.24 336.16L375.77 335.78L377.26 335.44L378.74 335.14L380.19 334.9L381.63 334.71L383.05 334.57L384.46 334.48L385.85 334.43L387.22 334.44L388.57 334.49L389.9 334.58L391.22 334.72L392.53 334.9L393.81 335.13L395.08 335.4L396.34 335.71L397.58 336.06L398.8 336.45L400.01 336.89L401.2 337.35L402.37 337.86L403.53 338.4L404.68 338.98L405.81 339.6L406.92 340.25L408.02 340.93L409.11 341.65L410.18 342.39L411.24 343.17L412.28 343.98L413.31 344.82L414.32 345.69L415.32 346.58L416.31 347.5L417.28 348.45L418.24 349.43L419.19 350.43L420.12 351.45L421.04 352.5L421.95 353.57L422.84 354.66L424.22 356.32L425.6 358L426.97 359.67L428.34 361.35L429.7 363.03L431.06 364.71L432.42 366.4L433.78 368.09L435.13 369.78L436.48 371.48L437.82 373.17L439.17 374.87L440.51 376.57L441.85 378.27L443.19 379.98L444.52 381.68L445.86 383.38L447.19 385.09L448.52 386.79L449.85 388.5L451.18 390.2L452.51 391.91L453.84 393.61L455.17 395.31L456.49 397.02L457.82 398.72L459.14 400.42L460.47 402.12L461.8 403.81L463.12 405.51L464.45 407.2L465.78 408.89L467.11 410.58L468.44 412.27L469.77 413.95L471.1 415.63L472.43 417.3L473.77 418.98L475.11 420.65L476.44 422.31L476.89 422.88L477.34 423.45L477.8 424.02L478.25 424.6L478.71 425.17L479.17 425.74L479.64 426.32L480.1 426.89L480.57 427.46L481.05 428.03L481.52 428.6L482 429.16L482.49 429.72L482.98 430.28L483.47 430.84L483.97 431.39L484.47 431.93L484.97 432.48L485.48 433.01L486 433.54L486.52 434.07L487.04 434.58L487.58 435.1L488.11 435.6L488.65 436.1L489.2 436.58L489.76 437.06L490.32 437.53L490.88 438L491.45 438.45L492.03 438.89L492.62 439.32L493.21 439.74L493.81 440.15L494.42 440.54L495.03 440.93L495.66 441.3L496.29 441.66L496.92 442.01L497.57 442.34L499.11 443.19L500.66 444.03L502.21 444.87L503.76 445.7L505.31 446.53L506.86 447.35L508.42 448.17L509.98 448.98L511.54 449.79L513.1 450.6L514.66 451.4L516.23 452.2L517.8 453L519.37 453.79L520.94 454.58L522.52 455.37L524.09 456.16L525.67 456.94L527.25 457.73L528.83 458.51L530.42 459.29L532.01 460.07L533.59 460.85L535.19 461.63L536.78 462.41L538.37 463.19L539.97 463.97L541.57 464.75L543.17 465.54L544.77 466.32L546.38 467.11L547.98 467.89L549.59 468.68L551.2 469.47L552.82 470.27L554.43 471.07L556.05 471.87L557.67 472.67L559.29 473.48L560.91 474.29L561.28 473.64L561.64 473.01L562.01 472.37L562.37 471.74L562.72 471.12L563.08 470.5L563.44 469.89L563.79 469.28L564.14 468.68L564.49 468.08L564.84 467.48L565.19 466.89L565.53 466.3L565.87 465.72L566.22 465.14L566.56 464.56L566.9 463.98L567.24 463.41L567.57 462.84L567.91 462.27L568.24 461.7L568.58 461.13L568.91 460.57L569.24 460.01L569.57 459.44L569.9 458.88L570.23 458.32L570.56 457.77L570.89 457.21L571.22 456.65L571.55 456.09L571.87 455.53L572.2 454.97L572.53 454.41L572.85 453.85L573.18 453.29L573.5 452.73L573.83 452.16L574.15 451.6L574.48 451.03L573.91 450.79L573.35 450.55L572.79 450.31L572.23 450.07L571.68 449.84L571.13 449.6L570.59 449.37L570.05 449.14L569.51 448.91L568.97 448.68L568.44 448.45L567.9 448.23L567.38 448L566.85 447.77L566.32 447.55L565.8 447.32L565.28 447.1L564.76 446.88L564.24 446.65L563.72 446.43L563.2 446.21L562.69 445.98L562.17 445.76L561.66 445.54L561.14 445.31L560.63 445.09L560.11 444.86L559.6 444.64L559.08 444.41L558.57 444.18L558.05 443.95L557.54 443.72L557.02 443.49L556.5 443.26L555.98 443.02L555.46 442.79L554.94 442.55L554.42 442.31L553.89 442.07L553.37 441.83L550.94 440.72L548.54 439.59L546.17 438.43L543.82 437.25L541.49 436.04L539.2 434.8L536.92 433.53L534.68 432.24L532.46 430.92L530.26 429.57L528.1 428.2L525.96 426.79L523.84 425.35L521.76 423.89L519.7 422.39L517.67 420.86L515.67 419.3L513.7 417.7L511.76 416.08L509.85 414.42L507.96 412.73L506.11 411L504.29 409.24L502.49 407.45L500.73 405.62L499 403.75L497.3 401.85L495.62 399.91L493.99 397.93L492.38 395.92L490.8 393.87L489.26 391.78L487.75 389.65L486.27 387.48L484.82 385.27L483.41 383.02L482.03 380.73L480.69 378.4L479.38 376.03L478.1 373.62L477.16 371.84L476.19 370.08L475.19 368.34L474.17 366.63L473.13 364.93L472.07 363.25L470.98 361.59L469.87 359.96L468.74 358.34L467.58 356.74L466.4 355.16L465.2 353.59L463.98 352.05L462.74 350.53L461.47 349.02L460.18 347.54L458.88 346.07L457.55 344.62L456.2 343.19L454.83 341.78L453.44 340.39L452.02 339.02L450.59 337.66L449.14 336.32L447.67 335L446.18 333.7L444.68 332.41L443.15 331.15L441.6 329.9L440.04 328.67L438.46 327.45L436.85 326.25L435.24 325.07L433.6 323.91L431.95 322.77L430.27 321.64L428.59 320.53L426.88 319.43L425.16 318.35L423.42 317.29L422.57 316.77L421.71 316.26L420.85 315.75L419.99 315.25L419.13 314.76L418.26 314.28L417.39 313.82L416.52 313.36L415.65 312.91L414.77 312.47L413.89 312.04L413 311.62L412.11 311.21L411.22 310.81L410.32 310.42L409.42 310.05L408.51 309.68L407.6 309.33L406.68 308.99L405.76 308.66L404.84 308.34L403.9 308.04L402.97 307.74L402.03 307.46L401.08 307.2L400.12 306.94L399.16 306.7L398.2 306.47L397.23 306.26L396.25 306.06L395.26 305.87L394.27 305.7L393.27 305.54L392.27 305.4L391.25 305.27L390.23 305.15L389.2 305.05L388.17 304.97L387.13 304.9L386.07 304.85L384.09 304.83L382.14 304.86L380.2 304.93ZM366.59 93.5L360.75 93.71L354.91 94.01L349.05 94.4L343.17 94.88L337.28 95.45L331.37 96.12L325.46 96.87L319.52 97.71L313.57 98.63L307.61 99.65L297.34 101.75L287.09 104.3L276.89 107.3L266.73 110.74L256.65 114.6L246.66 118.88L236.77 123.57L227 128.67L217.37 134.15L207.89 140.01L198.58 146.24L189.45 152.83L180.53 159.78L171.83 167.07L163.36 174.69L155.13 182.64L147.18 190.9L139.51 199.46L132.14 208.33L125.08 217.48L118.36 226.9L111.98 236.6L105.97 246.55L100.34 256.75L95.11 267.19L90.29 277.86L85.9 288.75L81.96 299.86L78.48 311.16L75.47 322.66L72.96 334.34L70.97 346.19L69.49 358.21L68.57 370.39L68.2 382.71L68.41 395.16L69.21 407.74L70.62 420.44L72.66 433.25L75.33 446.16L75.66 447.5L75.98 448.84L76.3 450.18L76.63 451.52L76.95 452.85L77.28 454.19L77.61 455.52L77.94 456.86L78.29 458.19L78.63 459.52L78.99 460.84L79.35 462.17L79.72 463.49L80.1 464.8L80.49 466.12L80.89 467.43L81.31 468.73L81.74 470.03L82.18 471.33L82.64 472.62L83.12 473.91L83.61 475.19L84.12 476.47L84.65 477.74L85.2 479L85.77 480.26L86.36 481.51L86.97 482.75L87.61 483.99L88.27 485.22L88.96 486.44L89.67 487.66L90.42 488.86L91.19 490.06L91.98 491.25L92.81 492.43L93.67 493.6L94.56 494.76L95.49 495.91L96.44 497.05L97.78 498.59L99.12 500.12L100.46 501.63L101.8 503.15L103.14 504.65L104.48 506.14L105.83 507.63L107.18 509.11L108.53 510.58L109.89 512.04L111.25 513.49L112.61 514.93L113.98 516.36L115.36 517.79L116.74 519.2L118.13 520.61L119.52 522.01L120.92 523.39L122.33 524.77L123.75 526.13L125.17 527.49L126.61 528.84L128.05 530.17L129.5 531.5L130.96 532.81L132.43 534.12L133.91 535.41L135.41 536.69L136.91 537.97L138.43 539.23L139.96 540.48L141.5 541.71L143.06 542.94L144.62 544.16L146.21 545.36L147.8 546.55L149.41 547.73L151.04 548.9L152.68 550.05L154.34 551.19L154.26 551.04L154.18 550.88L154.09 550.72L154.01 550.57L153.93 550.41L153.84 550.26L153.76 550.1L153.67 549.95L153.58 549.79L153.5 549.64L153.41 549.48L153.32 549.33L153.23 549.18L153.14 549.03L153.05 548.88L152.96 548.72L152.86 548.57L152.77 548.42L152.68 548.27L152.58 548.12L152.48 547.98L152.39 547.83L152.29 547.68L152.19 547.53L152.09 547.39L152 547.24L151.9 547.09L151.8 546.95L151.69 546.8L151.59 546.66L151.49 546.51L151.39 546.37L151.28 546.23L151.18 546.09L151.07 545.94L150.96 545.8L150.86 545.66L150.75 545.52L150.64 545.38L150.53 545.24L147.68 540.77L144.9 536.28L142.18 531.77L139.52 527.26L136.94 522.72L134.43 518.17L131.99 513.6L129.63 509.01L127.34 504.4L125.13 499.78L122.99 495.14L120.94 490.47L118.97 485.79L117.09 481.08L115.29 476.36L113.58 471.61L111.95 466.84L110.42 462.05L108.98 457.23L107.63 452.39L106.38 447.53L105.23 442.64L104.17 437.72L103.22 432.78L102.36 427.81L101.61 422.82L100.97 417.8L100.43 412.75L100 407.67L99.68 402.56L99.48 397.43L99.38 392.26L99.4 387.06L99.54 381.83L99.79 376.57L100.17 371.28L100.67 365.96L101.29 360.6L102.03 355.21L102.9 349.79L103.44 346.82L104 343.87L104.57 340.93L105.17 337.99L105.78 335.07L106.42 332.15L107.08 329.24L107.76 326.35L108.46 323.46L109.19 320.58L109.94 317.71L110.71 314.85L111.51 312.01L112.34 309.17L113.19 306.34L114.07 303.53L114.97 300.73L115.9 297.93L116.87 295.15L117.86 292.39L118.87 289.63L119.92 286.89L121 284.16L122.12 281.44L123.26 278.73L124.43 276.04L125.64 273.36L126.88 270.7L128.16 268.05L129.47 265.41L130.81 262.78L132.19 260.18L133.61 257.58L135.06 255L136.55 252.44L138.08 249.89L139.64 247.35L141.25 244.84L142.89 242.33L144.58 239.85L146.71 236.78L148.88 233.76L151.1 230.79L153.35 227.85L155.64 224.96L157.96 222.12L160.33 219.32L162.73 216.55L165.17 213.83L167.65 211.16L170.16 208.52L172.7 205.92L175.28 203.37L177.9 200.85L180.55 198.38L183.23 195.94L185.94 193.54L188.69 191.18L191.46 188.86L194.27 186.58L197.11 184.33L199.98 182.12L202.88 179.95L205.81 177.82L208.77 175.72L211.75 173.66L214.76 171.63L217.8 169.64L220.87 167.68L223.96 165.76L227.08 163.87L230.22 162.01L233.39 160.19L236.58 158.4L239.8 156.65L243.04 154.92L246.3 153.23L249.58 151.57L252.88 149.94L256.21 148.34L260.27 146.47L264.34 144.66L268.42 142.92L272.51 141.23L276.61 139.61L280.72 138.06L284.83 136.57L288.95 135.14L293.08 133.78L297.22 132.49L301.37 131.26L305.53 130.09L309.69 128.99L313.87 127.96L318.05 127L322.25 126.1L326.45 125.27L330.66 124.51L334.88 123.82L339.11 123.19L343.34 122.64L347.59 122.15L351.85 121.73L356.11 121.38L360.39 121.11L364.67 120.9L368.97 120.76L373.27 120.7L377.58 120.71L381.91 120.78L386.24 120.94L390.58 121.16L394.93 121.45L399.29 121.82L403.66 122.27L408.05 122.78L412.44 123.37L416.84 124.04L421.25 124.78L425.67 125.59L429.51 126.35L433.32 127.15L437.12 127.99L440.9 128.88L444.66 129.82L448.4 130.81L452.13 131.84L455.83 132.91L459.51 134.03L463.18 135.19L466.82 136.4L470.45 137.65L474.06 138.95L477.65 140.29L481.22 141.67L484.77 143.1L488.31 144.57L491.83 146.08L495.32 147.63L498.8 149.23L502.27 150.86L505.71 152.54L509.14 154.26L512.55 156.02L515.94 157.82L519.31 159.66L522.67 161.54L526 163.47L529.33 165.43L532.63 167.43L535.92 169.47L539.19 171.54L542.44 173.66L545.67 175.81L548.89 178.01L552.09 180.24L555.28 182.5L558.45 184.81L561.6 187.15L564.73 189.53L564.99 189.71L565.25 189.9L565.5 190.08L565.76 190.26L566.02 190.44L566.28 190.62L566.54 190.8L566.8 190.98L567.07 191.15L567.33 191.33L567.59 191.5L567.86 191.68L568.12 191.85L568.39 192.02L568.66 192.19L568.93 192.35L569.19 192.52L569.46 192.69L569.73 192.85L570 193.01L570.27 193.18L570.55 193.34L570.82 193.5L571.09 193.65L571.37 193.81L571.64 193.97L571.92 194.12L572.19 194.28L572.47 194.43L572.75 194.58L573.03 194.73L573.3 194.88L573.58 195.02L573.86 195.17L574.14 195.32L574.43 195.46L574.71 195.6L574.99 195.74L575.27 195.88L575.56 196.02L575.6 195.98L575.64 195.94L575.67 195.9L575.71 195.86L575.74 195.82L575.77 195.78L575.8 195.74L575.83 195.7L575.85 195.66L575.88 195.62L575.9 195.57L575.93 195.53L575.95 195.49L575.97 195.45L576 195.41L576.02 195.37L576.04 195.33L576.06 195.29L576.08 195.24L576.1 195.2L576.12 195.16L576.14 195.12L576.16 195.08L576.18 195.03L576.2 194.99L576.23 194.95L576.25 194.91L576.27 194.86L576.29 194.82L576.32 194.78L576.35 194.73L576.37 194.69L576.4 194.64L576.43 194.6L576.46 194.56L576.49 194.51L576.53 194.47L576.56 194.42L576.6 194.38L576.64 194.33L575.95 192.95L575.26 191.57L574.55 190.2L573.84 188.83L573.13 187.47L572.4 186.11L571.67 184.75L570.93 183.4L570.18 182.05L569.43 180.71L568.67 179.37L567.9 178.03L567.13 176.7L566.35 175.37L565.56 174.05L564.76 172.73L563.96 171.42L563.15 170.11L562.34 168.8L561.51 167.5L560.68 166.2L559.85 164.91L559 163.62L558.15 162.34L557.29 161.06L556.43 159.78L555.56 158.51L554.68 157.25L553.8 155.98L552.91 154.73L552.01 153.48L551.1 152.23L550.19 150.99L549.27 149.75L548.35 148.52L547.42 147.29L546.48 146.06L545.53 144.84L544.58 143.63L543.63 142.42L543.44 142.19L543.24 141.96L543.05 141.73L542.85 141.5L542.66 141.28L542.45 141.06L542.25 140.84L542.05 140.62L541.84 140.4L541.63 140.19L541.42 139.98L541.21 139.77L540.99 139.56L540.77 139.36L540.56 139.16L540.33 138.95L540.11 138.76L539.89 138.56L539.66 138.37L539.43 138.17L539.2 137.99L538.97 137.8L538.73 137.61L538.5 137.43L538.26 137.25L538.02 137.07L537.78 136.9L537.53 136.73L537.29 136.56L537.04 136.39L536.79 136.22L536.54 136.06L536.29 135.9L536.03 135.74L535.78 135.59L535.52 135.43L535.26 135.28L535 135.13L534.74 134.99L534.48 134.85L529.11 131.86L523.72 128.99L518.32 126.25L512.9 123.62L507.47 121.1L502.02 118.7L496.56 116.42L491.07 114.25L485.58 112.19L480.07 110.24L474.54 108.41L468.99 106.68L463.44 105.07L457.86 103.56L452.27 102.16L446.66 100.87L441.04 99.68L435.41 98.6L429.75 97.62L424.09 96.75L418.4 95.98L412.71 95.31L406.99 94.74L401.27 94.27L395.52 93.9L389.77 93.62L383.99 93.45L378.21 93.37L372.4 93.39L366.59 93.5ZM388.07 386.66L387.52 386.71L386.97 386.78L386.42 386.87L385.86 386.98L385.3 387.1L384.74 387.25L384.18 387.42L383.61 387.61L383.05 387.82L382.48 388.05L381.92 388.3L381.35 388.57L380.78 388.86L380.21 389.17L379.64 389.5L379.07 389.85L378.67 390.14L378.29 390.43L377.92 390.73L377.56 391.04L377.22 391.35L376.9 391.67L376.59 392L376.29 392.33L376.01 392.67L375.75 393.02L375.5 393.37L375.27 393.73L375.05 394.1L374.85 394.48L374.67 394.86L374.5 395.25L374.35 395.65L374.21 396.05L374.1 396.47L374 396.89L373.91 397.32L373.85 397.76L373.8 398.21L373.77 398.66L373.76 399.12L373.77 399.6L373.79 400.08L373.83 400.57L373.89 401.07L373.97 401.58L374.07 402.09L374.19 402.62L374.32 403.15L374.48 403.7L374.65 404.25L374.85 404.82L375.06 405.39L375.3 405.98L375.55 406.57L375.82 407.17L376.02 407.61L376.22 408.05L376.42 408.48L376.63 408.92L376.83 409.35L377.04 409.78L377.24 410.21L377.45 410.64L377.66 411.08L377.88 411.5L378.09 411.93L378.31 412.36L378.53 412.79L378.75 413.21L378.97 413.64L379.19 414.06L379.41 414.49L379.64 414.91L379.87 415.33L380.1 415.75L380.33 416.17L380.56 416.59L380.8 417.01L381.03 417.42L381.27 417.84L381.51 418.26L381.75 418.67L381.99 419.08L382.23 419.5L382.48 419.91L382.73 420.32L382.98 420.73L383.23 421.14L383.48 421.54L383.73 421.95L383.99 422.36L384.24 422.76L384.5 423.16L384.76 423.57L385.02 423.97L387.36 427.48L389.74 430.93L392.16 434.34L394.62 437.7L397.13 441.01L399.67 444.27L402.25 447.48L404.88 450.65L407.54 453.77L410.25 456.84L412.99 459.87L415.77 462.85L418.59 465.79L421.45 468.68L424.35 471.53L427.28 474.34L430.25 477.1L433.26 479.83L436.3 482.51L439.38 485.15L442.49 487.74L445.64 490.3L448.83 492.82L452.04 495.3L455.3 497.74L458.58 500.15L461.9 502.51L465.26 504.84L468.64 507.13L472.06 509.39L475.51 511.61L478.99 513.8L482.5 515.95L486.05 518.07L489.62 520.15L493.23 522.2L496.86 524.22L500.52 526.21L504.22 528.16L507.94 530.09L508.1 530.15L508.26 530.22L508.42 530.28L508.58 530.33L508.74 530.39L508.91 530.43L509.07 530.48L509.24 530.51L509.41 530.55L509.57 530.58L509.74 530.61L509.91 530.63L510.08 530.64L510.24 530.66L510.41 530.67L510.58 530.67L510.75 530.67L510.92 530.67L511.09 530.66L511.25 530.65L511.42 530.63L511.59 530.61L511.76 530.59L511.92 530.56L512.09 530.53L512.25 530.49L512.42 530.45L512.58 530.4L512.74 530.36L512.9 530.3L513.06 530.24L513.22 530.18L513.38 530.12L513.53 530.05L513.69 529.97L513.84 529.9L513.99 529.81L514.14 529.73L514.29 529.64L514.43 529.54L514.92 529.1L515.41 528.65L515.9 528.2L516.38 527.76L516.87 527.31L517.36 526.86L517.85 526.41L518.34 525.96L518.82 525.51L519.31 525.06L519.8 524.61L520.29 524.16L520.78 523.71L521.27 523.25L521.76 522.8L522.25 522.35L522.75 521.89L523.24 521.43L523.74 520.98L524.23 520.52L524.73 520.06L525.23 519.6L525.73 519.14L526.23 518.68L526.73 518.22L527.23 517.75L527.74 517.29L528.24 516.82L528.75 516.35L529.26 515.88L529.77 515.42L530.29 514.94L530.8 514.47L531.32 514L531.84 513.52L532.36 513.05L532.89 512.57L533.41 512.09L533.94 511.61L534.48 511.13L533.83 510.76L533.19 510.41L532.55 510.06L531.92 509.71L531.29 509.37L530.68 509.04L530.06 508.71L529.45 508.38L528.85 508.06L528.25 507.74L527.65 507.43L527.06 507.12L526.48 506.82L525.9 506.52L525.32 506.22L524.75 505.93L524.18 505.63L523.61 505.34L523.05 505.06L522.49 504.77L521.93 504.49L521.37 504.21L520.82 503.93L520.27 503.66L519.73 503.38L519.18 503.11L518.64 502.84L518.1 502.56L517.56 502.29L517.03 502.02L516.49 501.75L515.96 501.48L515.43 501.21L514.9 500.94L514.37 500.66L513.84 500.39L513.31 500.12L512.78 499.84L512.25 499.56L511.73 499.29L508.33 497.41L504.95 495.5L501.61 493.56L498.28 491.6L494.99 489.6L491.73 487.58L488.49 485.52L485.28 483.44L482.11 481.32L478.96 479.16L475.85 476.98L472.77 474.76L469.72 472.5L466.71 470.2L463.73 467.87L460.79 465.51L457.88 463.1L455.01 460.65L452.18 458.17L449.39 455.64L446.64 453.07L443.93 450.46L441.26 447.8L438.63 445.1L436.05 442.36L433.5 439.57L431.01 436.74L428.55 433.86L426.15 430.93L423.79 427.95L421.47 424.92L419.21 421.84L416.99 418.72L414.82 415.54L412.71 412.3L410.64 409.02L408.63 405.68L406.66 402.29L404.76 398.84L402.9 395.33L402.85 395.23L402.79 395.13L402.74 395.02L402.68 394.92L402.62 394.82L402.57 394.72L402.51 394.62L402.45 394.52L402.39 394.42L402.33 394.32L402.27 394.22L402.21 394.12L402.14 394.02L402.08 393.92L402.02 393.82L401.95 393.73L401.88 393.63L401.82 393.53L401.75 393.44L401.68 393.34L401.62 393.25L401.55 393.15L401.48 393.06L401.41 392.97L401.34 392.87L401.27 392.78L401.19 392.69L401.12 392.6L401.05 392.51L400.97 392.42L400.9 392.33L400.82 392.24L400.75 392.15L400.67 392.06L400.59 391.98L400.51 391.89L400.44 391.8L400.36 391.72L400.28 391.63L400.2 391.55L399.75 391.11L399.29 390.69L398.83 390.3L398.36 389.92L397.89 389.57L397.41 389.23L396.93 388.92L396.44 388.62L395.95 388.35L395.45 388.09L394.95 387.86L394.44 387.65L393.93 387.45L393.42 387.28L392.9 387.13L392.38 386.99L391.85 386.88L391.32 386.79L390.79 386.72L390.25 386.67L389.71 386.63L389.17 386.62L388.62 386.63L388.07 386.66ZM307.35 33.63L301.43 33.95L295.52 34.4L289.61 34.98L283.7 35.7L277.8 36.55L271.9 37.54L266.01 38.66L260.12 39.92L254.23 41.32L248.35 42.85L242.47 44.52L236.6 46.33L230.73 48.28L224.86 50.37L219 52.59L213.14 54.96L207.29 57.47L201.44 60.12L194.49 63.55L187.7 67.09L181.05 70.75L174.56 74.52L168.21 78.41L162.02 82.41L155.97 86.53L150.07 90.76L144.32 95.1L138.72 99.55L133.27 104.12L127.96 108.8L122.8 113.59L117.78 118.49L112.91 123.5L108.19 128.62L103.6 133.85L99.17 139.19L94.87 144.64L90.72 150.2L86.71 155.87L82.84 161.65L79.11 167.53L75.53 173.53L72.08 179.63L68.77 185.83L65.6 192.15L62.57 198.56L59.68 205.09L56.93 211.72L54.31 218.45L51.83 225.29L49.49 232.24L47.28 239.29L45.2 246.44L43.26 253.69L41.46 261.05L39.78 268.51L38.25 276.07L36.84 283.74L36.9 283.69L36.97 283.65L37.03 283.61L37.09 283.56L37.16 283.52L37.22 283.47L37.28 283.42L37.34 283.38L37.4 283.33L37.46 283.28L37.52 283.23L37.58 283.18L37.64 283.13L37.69 283.08L37.75 283.03L37.81 282.98L37.87 282.93L37.92 282.87L37.98 282.82L38.03 282.76L38.09 282.71L38.14 282.65L38.19 282.6L38.24 282.54L38.3 282.49L38.35 282.43L38.4 282.37L38.45 282.31L38.5 282.25L38.55 282.19L38.6 282.13L38.64 282.07L38.69 282.01L38.74 281.95L38.78 281.89L38.83 281.83L38.87 281.76L38.92 281.7L38.96 281.64L39 281.57L39.04 281.45L39.09 281.32L39.13 281.19L39.18 281.07L39.23 280.94L39.28 280.82L39.34 280.7L39.39 280.57L39.45 280.45L39.5 280.33L39.56 280.2L39.62 280.08L39.68 279.96L39.74 279.84L39.8 279.72L39.86 279.59L39.92 279.47L39.99 279.35L40.05 279.23L40.11 279.11L40.17 278.99L40.23 278.87L40.3 278.75L40.36 278.63L40.42 278.51L40.48 278.39L40.54 278.27L40.59 278.15L40.65 278.03L40.71 277.91L40.76 277.79L40.81 277.67L40.86 277.55L40.91 277.43L40.96 277.31L41.01 277.19L41.05 277.07L41.09 276.94L41.13 276.82L41.17 276.7L42.55 273.82L43.95 270.95L45.36 268.08L46.78 265.22L48.21 262.37L49.65 259.52L51.11 256.68L52.57 253.85L54.05 251.03L55.55 248.21L57.05 245.41L58.57 242.61L60.11 239.82L61.66 237.05L63.23 234.28L64.81 231.52L66.4 228.77L68.02 226.03L69.65 223.31L71.29 220.59L72.96 217.88L74.64 215.19L76.34 212.51L78.05 209.84L79.79 207.18L81.54 204.53L83.32 201.9L85.11 199.28L86.93 196.67L88.76 194.08L90.62 191.5L92.49 188.94L94.39 186.38L96.31 183.85L98.26 181.33L100.22 178.82L102.21 176.33L104.22 173.85L106.26 171.39L108.32 168.94L113.51 162.81L118.78 156.86L124.13 151.07L129.56 145.46L135.06 140.01L140.63 134.74L146.29 129.64L152.01 124.71L157.81 119.94L163.69 115.34L169.64 110.91L175.66 106.65L181.76 102.56L187.93 98.63L194.18 94.86L200.49 91.27L206.88 87.83L213.34 84.56L219.87 81.46L226.48 78.51L233.15 75.73L239.9 73.11L246.71 70.66L253.6 68.36L260.56 66.23L267.58 64.25L274.68 62.43L281.84 60.77L289.07 59.28L296.37 57.93L303.74 56.75L311.18 55.72L318.68 54.85L326.25 54.14L333.89 53.58L341.59 53.17L349.36 52.92L357.2 52.82L365.1 52.88L373.07 53.08L374.69 53.17L376.31 53.26L377.93 53.35L379.55 53.46L381.17 53.56L382.79 53.67L384.4 53.79L386.02 53.91L387.63 54.04L389.25 54.17L390.86 54.3L392.48 54.44L394.09 54.58L395.71 54.72L397.32 54.87L398.94 55.02L400.56 55.18L402.18 55.33L403.8 55.49L405.42 55.65L407.05 55.82L408.68 55.98L410.31 56.15L411.94 56.32L413.57 56.49L415.21 56.66L416.85 56.83L418.5 57L420.15 57.17L421.8 57.35L423.46 57.52L425.12 57.69L426.79 57.86L428.46 58.03L430.13 58.2L431.81 58.37L433.5 58.54L435.19 58.71L436.89 58.87L438.59 59.04L432.58 56.58L426.58 54.24L420.58 52.03L414.58 49.93L408.59 47.96L402.6 46.11L396.62 44.38L390.64 42.77L384.66 41.3L378.69 39.94L372.72 38.71L366.76 37.61L360.8 36.63L354.85 35.78L348.89 35.06L342.95 34.47L337 34L331.06 33.67L325.13 33.46L319.2 33.38L313.27 33.44L307.35 33.63Z"
      id="e5vCm2KxvU"/>
  </defs>
  <g>
    <g>
      <g>
        <use xlink:href="#e5vCm2KxvU" opacity="1" fill="#3698D3" fill-opacity="1"/>
        <g>
          <use xlink:href="#e5vCm2KxvU" opacity="1" fill-opacity="0" stroke="#000000" stroke-width="1"
               stroke-opacity="0"/>
        </g>
      </g>
    </g>
  </g>
</svg>
